<mxfile host="app.diagrams.net" modified="2021-03-01T18:57:55.601Z" agent="5.0 (X11)" etag="recblk-0IGGTJQlWGyOj" version="14.4.3" type="github">
  <diagram id="C5RBs43oDa-KdzZeNtuy" name="Page-1">
    <mxGraphModel dx="2957" dy="4020" grid="1" gridSize="10" guides="1" tooltips="1" connect="1" arrows="1" fold="1" page="1" pageScale="1" pageWidth="827" pageHeight="1169" math="0" shadow="0">
      <root>
        <mxCell id="WIyWlLk6GJQsqaUBKTNV-0" />
        <mxCell id="WIyWlLk6GJQsqaUBKTNV-1" parent="WIyWlLk6GJQsqaUBKTNV-0" />
        <mxCell id="_lFFnZ2sz5i3fzq-hsp4-139" value="&lt;font style=&quot;font-size: 18px&quot;&gt;x1&lt;/font&gt;" style="rounded=1;whiteSpace=wrap;html=1;" vertex="1" parent="WIyWlLk6GJQsqaUBKTNV-1">
          <mxGeometry x="30" y="720" width="120" height="60" as="geometry" />
        </mxCell>
        <mxCell id="_lFFnZ2sz5i3fzq-hsp4-140" value="&lt;font style=&quot;font-size: 18px&quot;&gt;h1&quot;&lt;/font&gt;" style="rounded=1;whiteSpace=wrap;html=1;" vertex="1" parent="WIyWlLk6GJQsqaUBKTNV-1">
          <mxGeometry x="30" y="540" width="120" height="60" as="geometry" />
        </mxCell>
        <mxCell id="_lFFnZ2sz5i3fzq-hsp4-141" value="&lt;font style=&quot;font-size: 18px&quot;&gt;h1&#39;&lt;/font&gt;" style="rounded=1;whiteSpace=wrap;html=1;" vertex="1" parent="WIyWlLk6GJQsqaUBKTNV-1">
          <mxGeometry x="200" y="630" width="120" height="60" as="geometry" />
        </mxCell>
        <mxCell id="_lFFnZ2sz5i3fzq-hsp4-142" value="&lt;font style=&quot;font-size: 18px&quot;&gt;h2&quot;&lt;/font&gt;" style="rounded=1;whiteSpace=wrap;html=1;" vertex="1" parent="WIyWlLk6GJQsqaUBKTNV-1">
          <mxGeometry x="430" y="540" width="120" height="60" as="geometry" />
        </mxCell>
        <mxCell id="_lFFnZ2sz5i3fzq-hsp4-143" value="&lt;font style=&quot;font-size: 18px&quot;&gt;h2&#39;&lt;/font&gt;" style="rounded=1;whiteSpace=wrap;html=1;" vertex="1" parent="WIyWlLk6GJQsqaUBKTNV-1">
          <mxGeometry x="620" y="630" width="120" height="60" as="geometry" />
        </mxCell>
        <mxCell id="_lFFnZ2sz5i3fzq-hsp4-144" value="&lt;font style=&quot;font-size: 18px&quot;&gt;x2&lt;/font&gt;" style="rounded=1;whiteSpace=wrap;html=1;" vertex="1" parent="WIyWlLk6GJQsqaUBKTNV-1">
          <mxGeometry x="430" y="720" width="120" height="60" as="geometry" />
        </mxCell>
        <mxCell id="_lFFnZ2sz5i3fzq-hsp4-145" value="&lt;font style=&quot;font-size: 18px&quot;&gt;h3&quot;&lt;/font&gt;" style="rounded=1;whiteSpace=wrap;html=1;" vertex="1" parent="WIyWlLk6GJQsqaUBKTNV-1">
          <mxGeometry x="800" y="540" width="120" height="60" as="geometry" />
        </mxCell>
        <mxCell id="_lFFnZ2sz5i3fzq-hsp4-146" value="&lt;font style=&quot;font-size: 18px&quot;&gt;h3&#39;&lt;/font&gt;" style="rounded=1;whiteSpace=wrap;html=1;" vertex="1" parent="WIyWlLk6GJQsqaUBKTNV-1">
          <mxGeometry x="990" y="630" width="120" height="60" as="geometry" />
        </mxCell>
        <mxCell id="_lFFnZ2sz5i3fzq-hsp4-147" value="&lt;font style=&quot;font-size: 18px&quot;&gt;x3&lt;/font&gt;" style="rounded=1;whiteSpace=wrap;html=1;" vertex="1" parent="WIyWlLk6GJQsqaUBKTNV-1">
          <mxGeometry x="800" y="720" width="120" height="60" as="geometry" />
        </mxCell>
        <mxCell id="_lFFnZ2sz5i3fzq-hsp4-148" value="" style="endArrow=classic;html=1;entryX=0.5;entryY=1;entryDx=0;entryDy=0;" edge="1" parent="WIyWlLk6GJQsqaUBKTNV-1" target="_lFFnZ2sz5i3fzq-hsp4-141">
          <mxGeometry width="50" height="50" relative="1" as="geometry">
            <mxPoint x="150" y="760" as="sourcePoint" />
            <mxPoint x="200" y="710" as="targetPoint" />
          </mxGeometry>
        </mxCell>
        <mxCell id="_lFFnZ2sz5i3fzq-hsp4-149" value="" style="endArrow=classic;html=1;entryX=0.5;entryY=1;entryDx=0;entryDy=0;exitX=0.5;exitY=0;exitDx=0;exitDy=0;" edge="1" parent="WIyWlLk6GJQsqaUBKTNV-1" source="_lFFnZ2sz5i3fzq-hsp4-139" target="_lFFnZ2sz5i3fzq-hsp4-140">
          <mxGeometry width="50" height="50" relative="1" as="geometry">
            <mxPoint x="340" y="660" as="sourcePoint" />
            <mxPoint x="390" y="610" as="targetPoint" />
          </mxGeometry>
        </mxCell>
        <mxCell id="_lFFnZ2sz5i3fzq-hsp4-150" value="" style="endArrow=classic;html=1;exitX=0.5;exitY=0;exitDx=0;exitDy=0;entryX=0.5;entryY=1;entryDx=0;entryDy=0;" edge="1" parent="WIyWlLk6GJQsqaUBKTNV-1" source="_lFFnZ2sz5i3fzq-hsp4-144" target="_lFFnZ2sz5i3fzq-hsp4-142">
          <mxGeometry width="50" height="50" relative="1" as="geometry">
            <mxPoint x="410" y="630" as="sourcePoint" />
            <mxPoint x="460" y="580" as="targetPoint" />
          </mxGeometry>
        </mxCell>
        <mxCell id="_lFFnZ2sz5i3fzq-hsp4-151" value="" style="endArrow=classic;html=1;exitX=1;exitY=0.5;exitDx=0;exitDy=0;entryX=0.5;entryY=1;entryDx=0;entryDy=0;" edge="1" parent="WIyWlLk6GJQsqaUBKTNV-1" source="_lFFnZ2sz5i3fzq-hsp4-144" target="_lFFnZ2sz5i3fzq-hsp4-143">
          <mxGeometry width="50" height="50" relative="1" as="geometry">
            <mxPoint x="410" y="630" as="sourcePoint" />
            <mxPoint x="460" y="580" as="targetPoint" />
          </mxGeometry>
        </mxCell>
        <mxCell id="_lFFnZ2sz5i3fzq-hsp4-152" value="" style="endArrow=classic;html=1;exitX=1;exitY=0.5;exitDx=0;exitDy=0;entryX=0.5;entryY=1;entryDx=0;entryDy=0;" edge="1" parent="WIyWlLk6GJQsqaUBKTNV-1" source="_lFFnZ2sz5i3fzq-hsp4-147" target="_lFFnZ2sz5i3fzq-hsp4-146">
          <mxGeometry width="50" height="50" relative="1" as="geometry">
            <mxPoint x="750" y="630" as="sourcePoint" />
            <mxPoint x="800" y="580" as="targetPoint" />
          </mxGeometry>
        </mxCell>
        <mxCell id="_lFFnZ2sz5i3fzq-hsp4-153" value="" style="endArrow=classic;html=1;exitX=0.5;exitY=0;exitDx=0;exitDy=0;entryX=0.5;entryY=1;entryDx=0;entryDy=0;" edge="1" parent="WIyWlLk6GJQsqaUBKTNV-1" source="_lFFnZ2sz5i3fzq-hsp4-147" target="_lFFnZ2sz5i3fzq-hsp4-145">
          <mxGeometry width="50" height="50" relative="1" as="geometry">
            <mxPoint x="750" y="630" as="sourcePoint" />
            <mxPoint x="800" y="580" as="targetPoint" />
          </mxGeometry>
        </mxCell>
        <mxCell id="_lFFnZ2sz5i3fzq-hsp4-154" value="" style="endArrow=classic;html=1;exitX=1;exitY=0.5;exitDx=0;exitDy=0;entryX=0;entryY=0.5;entryDx=0;entryDy=0;" edge="1" parent="WIyWlLk6GJQsqaUBKTNV-1" source="_lFFnZ2sz5i3fzq-hsp4-141" target="_lFFnZ2sz5i3fzq-hsp4-143">
          <mxGeometry width="50" height="50" relative="1" as="geometry">
            <mxPoint x="350" y="630" as="sourcePoint" />
            <mxPoint x="400" y="580" as="targetPoint" />
          </mxGeometry>
        </mxCell>
        <mxCell id="_lFFnZ2sz5i3fzq-hsp4-155" value="" style="endArrow=classic;html=1;exitX=1;exitY=0.5;exitDx=0;exitDy=0;" edge="1" parent="WIyWlLk6GJQsqaUBKTNV-1" source="_lFFnZ2sz5i3fzq-hsp4-140">
          <mxGeometry width="50" height="50" relative="1" as="geometry">
            <mxPoint x="350" y="630" as="sourcePoint" />
            <mxPoint x="150" y="570" as="targetPoint" />
          </mxGeometry>
        </mxCell>
        <mxCell id="_lFFnZ2sz5i3fzq-hsp4-156" value="" style="endArrow=classic;html=1;entryX=1;entryY=0.5;entryDx=0;entryDy=0;exitX=0;exitY=0.5;exitDx=0;exitDy=0;" edge="1" parent="WIyWlLk6GJQsqaUBKTNV-1" source="_lFFnZ2sz5i3fzq-hsp4-142" target="_lFFnZ2sz5i3fzq-hsp4-140">
          <mxGeometry width="50" height="50" relative="1" as="geometry">
            <mxPoint x="350" y="630" as="sourcePoint" />
            <mxPoint x="400" y="580" as="targetPoint" />
          </mxGeometry>
        </mxCell>
        <mxCell id="_lFFnZ2sz5i3fzq-hsp4-157" value="" style="endArrow=classic;html=1;exitX=0;exitY=0.5;exitDx=0;exitDy=0;entryX=1;entryY=0.5;entryDx=0;entryDy=0;" edge="1" parent="WIyWlLk6GJQsqaUBKTNV-1" source="_lFFnZ2sz5i3fzq-hsp4-145" target="_lFFnZ2sz5i3fzq-hsp4-142">
          <mxGeometry width="50" height="50" relative="1" as="geometry">
            <mxPoint x="650" y="590" as="sourcePoint" />
            <mxPoint x="720" y="580" as="targetPoint" />
          </mxGeometry>
        </mxCell>
        <mxCell id="_lFFnZ2sz5i3fzq-hsp4-158" value="" style="endArrow=classic;html=1;exitX=1;exitY=0.5;exitDx=0;exitDy=0;entryX=0;entryY=0.5;entryDx=0;entryDy=0;" edge="1" parent="WIyWlLk6GJQsqaUBKTNV-1" source="_lFFnZ2sz5i3fzq-hsp4-143" target="_lFFnZ2sz5i3fzq-hsp4-146">
          <mxGeometry width="50" height="50" relative="1" as="geometry">
            <mxPoint x="670" y="630" as="sourcePoint" />
            <mxPoint x="720" y="580" as="targetPoint" />
          </mxGeometry>
        </mxCell>
        <mxCell id="_lFFnZ2sz5i3fzq-hsp4-159" value="" style="endArrow=classic;html=1;exitX=0.5;exitY=0;exitDx=0;exitDy=0;entryX=0.5;entryY=1;entryDx=0;entryDy=0;" edge="1" parent="WIyWlLk6GJQsqaUBKTNV-1" target="_lFFnZ2sz5i3fzq-hsp4-160">
          <mxGeometry width="50" height="50" relative="1" as="geometry">
            <mxPoint x="520" y="400" as="sourcePoint" />
            <mxPoint x="510" y="290" as="targetPoint" />
          </mxGeometry>
        </mxCell>
        <mxCell id="_lFFnZ2sz5i3fzq-hsp4-160" value="&lt;font style=&quot;font-size: 20px&quot;&gt;ANN&lt;/font&gt;" style="rounded=1;whiteSpace=wrap;html=1;" vertex="1" parent="WIyWlLk6GJQsqaUBKTNV-1">
          <mxGeometry x="440" y="250" width="160" height="70" as="geometry" />
        </mxCell>
        <mxCell id="_lFFnZ2sz5i3fzq-hsp4-161" value="" style="shape=table;html=1;whiteSpace=wrap;startSize=0;container=1;collapsible=0;childLayout=tableLayout;" vertex="1" parent="WIyWlLk6GJQsqaUBKTNV-1">
          <mxGeometry x="370" y="120" width="300" height="40" as="geometry" />
        </mxCell>
        <mxCell id="_lFFnZ2sz5i3fzq-hsp4-162" value="" style="shape=partialRectangle;html=1;whiteSpace=wrap;collapsible=0;dropTarget=0;pointerEvents=0;fillColor=none;top=0;left=0;bottom=0;right=0;points=[[0,0.5],[1,0.5]];portConstraint=eastwest;" vertex="1" parent="_lFFnZ2sz5i3fzq-hsp4-161">
          <mxGeometry width="300" height="40" as="geometry" />
        </mxCell>
        <mxCell id="_lFFnZ2sz5i3fzq-hsp4-163" value="&lt;font style=&quot;font-size: 18px&quot;&gt;1&lt;/font&gt;" style="shape=partialRectangle;html=1;whiteSpace=wrap;connectable=0;fillColor=none;top=0;left=0;bottom=0;right=0;overflow=hidden;" vertex="1" parent="_lFFnZ2sz5i3fzq-hsp4-162">
          <mxGeometry width="60" height="40" as="geometry" />
        </mxCell>
        <mxCell id="_lFFnZ2sz5i3fzq-hsp4-164" value="&lt;font style=&quot;font-size: 18px&quot;&gt;2&lt;/font&gt;" style="shape=partialRectangle;html=1;whiteSpace=wrap;connectable=0;fillColor=none;top=0;left=0;bottom=0;right=0;overflow=hidden;" vertex="1" parent="_lFFnZ2sz5i3fzq-hsp4-162">
          <mxGeometry x="60" width="60" height="40" as="geometry" />
        </mxCell>
        <mxCell id="_lFFnZ2sz5i3fzq-hsp4-165" value="&lt;font style=&quot;font-size: 18px&quot;&gt;3&lt;/font&gt;" style="shape=partialRectangle;html=1;whiteSpace=wrap;connectable=0;fillColor=none;top=0;left=0;bottom=0;right=0;overflow=hidden;" vertex="1" parent="_lFFnZ2sz5i3fzq-hsp4-162">
          <mxGeometry x="120" width="60" height="40" as="geometry" />
        </mxCell>
        <mxCell id="_lFFnZ2sz5i3fzq-hsp4-166" value="&lt;font style=&quot;font-size: 18px&quot;&gt;4&lt;/font&gt;" style="shape=partialRectangle;html=1;whiteSpace=wrap;connectable=0;fillColor=none;top=0;left=0;bottom=0;right=0;overflow=hidden;" vertex="1" parent="_lFFnZ2sz5i3fzq-hsp4-162">
          <mxGeometry x="180" width="60" height="40" as="geometry" />
        </mxCell>
        <mxCell id="_lFFnZ2sz5i3fzq-hsp4-167" value="&lt;font style=&quot;font-size: 18px&quot;&gt;5&lt;/font&gt;" style="shape=partialRectangle;html=1;whiteSpace=wrap;connectable=0;fillColor=none;top=0;left=0;bottom=0;right=0;overflow=hidden;" vertex="1" parent="_lFFnZ2sz5i3fzq-hsp4-162">
          <mxGeometry x="240" width="60" height="40" as="geometry" />
        </mxCell>
        <mxCell id="_lFFnZ2sz5i3fzq-hsp4-168" value="" style="shape=table;html=1;whiteSpace=wrap;startSize=0;container=1;collapsible=0;childLayout=tableLayout;" vertex="1" parent="WIyWlLk6GJQsqaUBKTNV-1">
          <mxGeometry x="400" y="400" width="240" height="40" as="geometry" />
        </mxCell>
        <mxCell id="_lFFnZ2sz5i3fzq-hsp4-169" value="" style="shape=partialRectangle;html=1;whiteSpace=wrap;collapsible=0;dropTarget=0;pointerEvents=0;fillColor=none;top=0;left=0;bottom=0;right=0;points=[[0,0.5],[1,0.5]];portConstraint=eastwest;" vertex="1" parent="_lFFnZ2sz5i3fzq-hsp4-168">
          <mxGeometry width="240" height="40" as="geometry" />
        </mxCell>
        <mxCell id="_lFFnZ2sz5i3fzq-hsp4-170" value="&lt;font style=&quot;font-size: 20px&quot;&gt;h2&#39;&lt;/font&gt;" style="shape=partialRectangle;html=1;whiteSpace=wrap;connectable=0;fillColor=none;top=0;left=0;bottom=0;right=0;overflow=hidden;" vertex="1" parent="_lFFnZ2sz5i3fzq-hsp4-169">
          <mxGeometry width="120" height="40" as="geometry" />
        </mxCell>
        <mxCell id="_lFFnZ2sz5i3fzq-hsp4-171" value="&lt;font style=&quot;font-size: 18px&quot;&gt;h2&quot;&lt;/font&gt;" style="shape=partialRectangle;html=1;whiteSpace=wrap;connectable=0;fillColor=none;top=0;left=0;bottom=0;right=0;overflow=hidden;" vertex="1" parent="_lFFnZ2sz5i3fzq-hsp4-169">
          <mxGeometry x="120" width="120" height="40" as="geometry" />
        </mxCell>
        <mxCell id="_lFFnZ2sz5i3fzq-hsp4-172" value="" style="endArrow=classic;html=1;exitX=0.5;exitY=0;exitDx=0;exitDy=0;" edge="1" parent="WIyWlLk6GJQsqaUBKTNV-1" source="_lFFnZ2sz5i3fzq-hsp4-160" target="_lFFnZ2sz5i3fzq-hsp4-162">
          <mxGeometry width="50" height="50" relative="1" as="geometry">
            <mxPoint x="520" y="260" as="sourcePoint" />
            <mxPoint x="570" y="330" as="targetPoint" />
          </mxGeometry>
        </mxCell>
        <mxCell id="_lFFnZ2sz5i3fzq-hsp4-173" value="" style="shape=curlyBracket;whiteSpace=wrap;html=1;rounded=1;size=0.5;" vertex="1" parent="WIyWlLk6GJQsqaUBKTNV-1">
          <mxGeometry x="150" y="55" width="130" height="170" as="geometry" />
        </mxCell>
        <mxCell id="_lFFnZ2sz5i3fzq-hsp4-174" value="&lt;font style=&quot;font-size: 18px&quot;&gt;Label Probabilities&lt;br&gt;&lt;/font&gt;" style="text;html=1;align=center;verticalAlign=middle;resizable=0;points=[];autosize=1;" vertex="1" parent="WIyWlLk6GJQsqaUBKTNV-1">
          <mxGeometry x="220" y="130" width="160" height="20" as="geometry" />
        </mxCell>
        <mxCell id="_lFFnZ2sz5i3fzq-hsp4-175" value="&lt;font style=&quot;font-size: 18px&quot;&gt;Feed Forward ANN&lt;br&gt;&lt;/font&gt;" style="strokeWidth=2;html=1;shape=mxgraph.flowchart.annotation_2;align=left;labelPosition=right;pointerEvents=1;" vertex="1" parent="WIyWlLk6GJQsqaUBKTNV-1">
          <mxGeometry x="220" y="235" width="50" height="100" as="geometry" />
        </mxCell>
        <mxCell id="_lFFnZ2sz5i3fzq-hsp4-176" value="&lt;font style=&quot;font-size: 18px&quot;&gt;encoding along with contextual information&lt;br&gt;&lt;/font&gt;" style="shape=curlyBracket;whiteSpace=wrap;html=1;rounded=1;size=0;" vertex="1" parent="WIyWlLk6GJQsqaUBKTNV-1">
          <mxGeometry x="260" y="370" width="120" height="100" as="geometry" />
        </mxCell>
        <mxCell id="_lFFnZ2sz5i3fzq-hsp4-177" value="&lt;font style=&quot;font-size: 18px&quot;&gt;BiLSTM&lt;/font&gt;" style="strokeWidth=2;html=1;shape=mxgraph.flowchart.annotation_1;align=left;pointerEvents=1;" vertex="1" parent="WIyWlLk6GJQsqaUBKTNV-1">
          <mxGeometry x="-170" y="550" width="110" height="220" as="geometry" />
        </mxCell>
      </root>
    </mxGraphModel>
  </diagram>
</mxfile>
